<svg width="20" height="20" viewBox="0 0 20 20" fill="none" xmlns="http://www.w3.org/2000/svg">
<path fill-rule="evenodd" clip-rule="evenodd" d="M7.52329 9.0961C7.03513 9.58425 7.03513 10.3757 7.52329 10.8639L9.07892 12.4195C9.56708 12.9077 10.3585 12.9077 10.8467 12.4195L12.4023 10.8639C12.8905 10.3757 12.8905 9.58425 12.4023 9.0961L10.8467 7.54046C10.3585 7.05231 9.56708 7.05231 9.07892 7.54046L7.52329 9.0961ZM9.96281 11.1821L8.76072 9.97998L9.96281 8.7779L11.1649 9.97998L9.96281 11.1821Z" fill="white"/>
<path fill-rule="evenodd" clip-rule="evenodd" d="M10 1.25C5.16751 1.25 1.25 5.16751 1.25 10C1.25 14.8325 5.16751 18.75 10 18.75C14.8325 18.75 18.75 14.8325 18.75 10C18.75 5.16751 14.8325 1.25 10 1.25ZM2.75 10C2.75 5.99594 5.99594 2.75 10 2.75C14.0041 2.75 17.25 5.99594 17.25 10C17.25 14.0041 14.0041 17.25 10 17.25C5.99594 17.25 2.75 14.0041 2.75 10Z" fill="white"/>
</svg>
