<svg width="20" height="20" viewBox="0 0 20 20" fill="none" xmlns="http://www.w3.org/2000/svg">
<path fill-rule="evenodd" clip-rule="evenodd" d="M6.75 2.25C5.36929 2.25 4.25 3.36929 4.25 4.75C4.25 5.95948 5.10888 6.96836 6.25 7.19999V13.3C5.10888 13.5316 4.25 14.5405 4.25 15.75C4.25 17.1307 5.36929 18.25 6.75 18.25C8.13071 18.25 9.25 17.1307 9.25 15.75C9.25 14.7248 8.63295 13.8438 7.75 13.458V11.25C9.13788 11.2496 10.7026 11.2307 11.9296 10.6854C12.6128 10.3817 13.2129 9.90921 13.6322 9.1904C14.0458 8.48132 14.25 8.59025 14.25 7.5C14.25 7.39757 14.2295 7.29994 14.1923 7.211C15.362 7.00217 16.25 5.97978 16.25 4.75C16.25 3.36929 15.1307 2.25 13.75 2.25C12.3693 2.25 11.25 3.36929 11.25 4.75C11.25 5.82143 11.924 6.73543 12.8711 7.09115C12.7945 7.20875 12.75 7.34918 12.75 7.5C12.75 8.40975 12.5792 8.01868 12.3365 8.4346C12.0996 8.84079 11.7622 9.11829 11.3204 9.31464C10.423 9.71349 9.19445 9.74732 7.75 9.74982V7.04198C8.63295 6.6562 9.25 5.77516 9.25 4.75C9.25 3.36929 8.13071 2.25 6.75 2.25ZM5.75 4.75C5.75 4.19772 6.19772 3.75 6.75 3.75C7.30228 3.75 7.75 4.19772 7.75 4.75C7.75 5.30228 7.30228 5.75 6.75 5.75C6.19772 5.75 5.75 5.30228 5.75 4.75ZM12.75 4.75C12.75 4.19772 13.1977 3.75 13.75 3.75C14.3023 3.75 14.75 4.19772 14.75 4.75C14.75 5.30228 14.3023 5.75 13.75 5.75C13.1977 5.75 12.75 5.30228 12.75 4.75ZM6.75 14.75C6.19772 14.75 5.75 15.1977 5.75 15.75C5.75 16.3023 6.19772 16.75 6.75 16.75C7.30228 16.75 7.75 16.3023 7.75 15.75C7.75 15.1977 7.30228 14.75 6.75 14.75Z" fill="white"/>
</svg>
