<svg width="20" height="20" viewBox="0 0 20 20" fill="none" xmlns="http://www.w3.org/2000/svg">
<path d="M5.44444 8.33325C4.65 8.33325 4 9.08325 4 9.99992C4 10.9166 4.65 11.6666 5.44444 11.6666C6.23889 11.6666 6.88889 10.9166 6.88889 9.99992C6.88889 9.08325 6.23889 8.33325 5.44444 8.33325ZM15.5556 8.33325C14.7611 8.33325 14.1111 9.08325 14.1111 9.99992C14.1111 10.9166 14.7611 11.6666 15.5556 11.6666C16.35 11.6666 17 10.9166 17 9.99992C17 9.08325 16.35 8.33325 15.5556 8.33325ZM10.5 8.33325C9.70556 8.33325 9.05556 9.08325 9.05556 9.99992C9.05556 10.9166 9.70556 11.6666 10.5 11.6666C11.2944 11.6666 11.9444 10.9166 11.9444 9.99992C11.9444 9.08325 11.2944 8.33325 10.5 8.33325Z" fill="white"/>
</svg>
