<svg width="20" height="20" viewBox="0 0 20 20" fill="none" xmlns="http://www.w3.org/2000/svg">
<path fill-rule="evenodd" clip-rule="evenodd" d="M15.2706 2.25C14.6132 2.25 13.9827 2.51104 13.5178 2.97573L12.4679 4.02185C12.427 4.04905 12.3881 4.0807 12.352 4.11681C12.3166 4.15225 12.2854 4.19036 12.2586 4.23049L6.58829 9.88053C6.44706 10.0213 6.36768 10.2124 6.36768 10.4118V12.8824C6.36768 13.2966 6.70346 13.6324 7.11768 13.6324H9.58825C9.78763 13.6324 9.9788 13.553 10.1195 13.4118L15.7696 7.7415C15.8097 7.71464 15.8478 7.68348 15.8832 7.64804C15.9194 7.61194 15.951 7.57307 15.9782 7.53212L17.0244 6.48223C17.489 6.01728 17.7501 5.38684 17.7501 4.72949C17.7501 4.07189 17.4888 3.44122 17.0238 2.97623C16.5588 2.51123 15.9282 2.25 15.2706 2.25ZM7.86768 10.7233L12.8917 5.71714L14.2829 7.10836L9.2768 12.1324H7.86768V10.7233ZM13.9542 4.65838L15.3417 6.04581L15.9632 5.42209C16.1469 5.2384 16.2501 4.98927 16.2501 4.72949C16.2501 4.46971 16.1469 4.22058 15.9632 4.03689C15.7795 3.8532 15.5303 3.75 15.2706 3.75C15.0108 3.75 14.7617 3.8532 14.578 4.03689L13.9542 4.65838Z" fill="white"/>
<path d="M4.64705 5.54419C4.01131 5.54419 3.40161 5.79673 2.95208 6.24627C2.50255 6.6958 2.25 7.3055 2.25 7.94124V15.353C2.25 15.9887 2.50255 16.5984 2.95208 17.0479C3.40161 17.4975 4.01131 17.75 4.64705 17.75H12.0588C12.6945 17.75 13.3042 17.4975 13.7537 17.0479C14.2033 16.5984 14.4558 15.9887 14.4558 15.353V14.5294C14.4558 14.1152 14.12 13.7794 13.7058 13.7794C13.2916 13.7794 12.9558 14.1152 12.9558 14.5294V15.353C12.9558 15.5909 12.8613 15.819 12.6931 15.9873C12.5248 16.1555 12.2967 16.25 12.0588 16.25H4.64705C4.40914 16.25 4.18097 16.1555 4.01274 15.9873C3.84451 15.819 3.75 15.5909 3.75 15.353V7.94124C3.75 7.70333 3.84451 7.47516 4.01274 7.30693C4.18097 7.1387 4.40914 7.04419 4.64705 7.04419H5.47057C5.88479 7.04419 6.22057 6.7084 6.22057 6.29419C6.22057 5.87998 5.88479 5.54419 5.47057 5.54419H4.64705Z" fill="white"/>
</svg>
