<svg width="20" height="20" viewBox="0 0 20 20" fill="none" xmlns="http://www.w3.org/2000/svg">
<path fill-rule="evenodd" clip-rule="evenodd" d="M5 2.25C4.58579 2.25 4.25 2.58579 4.25 3V15.4444C4.25 16.0559 4.49291 16.6423 4.92528 17.0747C5.35766 17.5071 5.94408 17.75 6.55556 17.75H14.3333C14.9448 17.75 15.5312 17.5071 15.9636 17.0747C16.396 16.6423 16.6389 16.0559 16.6389 15.4444V6.88889C16.6389 6.68998 16.5599 6.49921 16.4192 6.35856L12.5303 2.46967C12.3897 2.32902 12.1989 2.25 12 2.25H5ZM5.75 15.4444V3.75H10.4722V7.66667C10.4722 8.08088 10.808 8.41667 11.2222 8.41667H15.1389V15.4444C15.1389 15.6581 15.054 15.863 14.9029 16.0141C14.7519 16.1651 14.547 16.25 14.3333 16.25H6.55556C6.34191 16.25 6.13701 16.1651 5.98594 16.0141C5.83487 15.863 5.75 15.6581 5.75 15.4444ZM14.856 6.91667L11.9722 4.03283V6.91667H14.856Z" fill="white"/>
</svg>
