<svg width="20" height="20" viewBox="0 0 20 20" fill="none" xmlns="http://www.w3.org/2000/svg">
<path d="M2.45561 3.45561C2.16389 3.74733 2 4.143 2 4.55556V15.4444C2 15.857 2.16389 16.2527 2.45561 16.5444C2.74733 16.8361 3.143 17 3.55556 17H16C16.4126 17 16.8082 16.8361 17.0999 16.5444C17.3917 16.2527 17.5556 15.857 17.5556 15.4444V6.5C17.5556 6.08744 17.3917 5.69178 17.0999 5.40006C16.8082 5.10833 16.4126 4.94444 16 4.94444H10.1519L9.063 3.58333C8.91728 3.40133 8.73251 3.25441 8.52236 3.15344C8.3122 3.05247 8.08204 3.00003 7.84889 3H3.55556C3.143 3 2.74733 3.16389 2.45561 3.45561Z" fill="white"/>
</svg>
