<svg width="20" height="20" viewBox="0 0 20 20" fill="none" xmlns="http://www.w3.org/2000/svg">
<path fill-rule="evenodd" clip-rule="evenodd" d="M1.25 5.66667C1.25 3.77969 2.77969 2.25 4.66667 2.25C6.55364 2.25 8.08333 3.77969 8.08333 5.66667C8.08333 7.296 6.94284 8.65895 5.41663 9.00077V18.0001C5.41663 18.4143 5.08084 18.7501 4.66663 18.7501C4.25241 18.7501 3.91663 18.4143 3.91663 18.0001V9.00075C2.39045 8.6589 1.25 7.29597 1.25 5.66667ZM4.66667 3.75C3.60812 3.75 2.75 4.60812 2.75 5.66667C2.75 6.72521 3.60812 7.58333 4.66667 7.58333C5.72521 7.58333 6.58333 6.72521 6.58333 5.66667C6.58333 4.60812 5.72521 3.75 4.66667 3.75Z" fill="white"/>
<path fill-rule="evenodd" clip-rule="evenodd" d="M14.5833 11.9993C13.0571 12.3412 11.9166 13.7041 11.9166 15.3334C11.9166 17.2204 13.4463 18.7501 15.3333 18.7501C17.2203 18.7501 18.75 17.2204 18.75 15.3334C18.75 13.7041 17.6095 12.3412 16.0833 11.9993V6.44453C16.0833 5.77412 15.817 5.13117 15.3429 4.65712C14.8689 4.18307 14.2259 3.91675 13.5555 3.91675H10.8888C10.4746 3.91675 10.1388 4.25253 10.1388 4.66675C10.1388 5.08096 10.4746 5.41675 10.8888 5.41675H13.5555C13.8281 5.41675 14.0895 5.52503 14.2823 5.71778C14.475 5.91052 14.5833 6.17194 14.5833 6.44453V11.9993ZM15.3323 13.4167C14.2742 13.4173 13.4166 14.2752 13.4166 15.3334C13.4166 16.392 14.2747 17.2501 15.3333 17.2501C16.3918 17.2501 17.25 16.392 17.25 15.3334C17.25 14.2749 16.3918 13.4167 15.3333 13.4167H15.3323Z" fill="white"/>
</svg>
