<svg width="16" height="15" viewBox="0 0 16 15" fill="none" xmlns="http://www.w3.org/2000/svg">
<path fill-rule="evenodd" clip-rule="evenodd" d="M4.25 2C4.25 1.0335 5.0335 0.25 6 0.25H14C14.9665 0.25 15.75 1.0335 15.75 2V10C15.75 10.9665 14.9665 11.75 14 11.75H6C5.0335 11.75 4.25 10.9665 4.25 10V2ZM6 1.75C5.86193 1.75 5.75 1.86193 5.75 2V10C5.75 10.1381 5.86193 10.25 6 10.25H14C14.1381 10.25 14.25 10.1381 14.25 10V2C14.25 1.86193 14.1381 1.75 14 1.75H6Z" fill="white"/>
<path fill-rule="evenodd" clip-rule="evenodd" d="M2 4.75C1.86193 4.75 1.75 4.86193 1.75 5V13C1.75 13.1381 1.86193 13.25 2 13.25H10C10.1381 13.25 10.25 13.1381 10.25 13V11C10.25 10.5858 10.5858 10.25 11 10.25C11.4142 10.25 11.75 10.5858 11.75 11V13C11.75 13.9665 10.9665 14.75 10 14.75H2C1.0335 14.75 0.25 13.9665 0.25 13V5C0.25 4.0335 1.0335 3.25 2 3.25H5C5.41421 3.25 5.75 3.58579 5.75 4C5.75 4.41421 5.41421 4.75 5 4.75H2Z" fill="white"/>
</svg>
