<svg width="20" height="20" viewBox="0 0 20 20" fill="none" xmlns="http://www.w3.org/2000/svg">
<path fill-rule="evenodd" clip-rule="evenodd" d="M5 0.75C3.48122 0.75 2.25 1.98122 2.25 3.5V14C2.25 14.0587 2.25675 14.1159 2.26951 14.1707C2.25663 14.2787 2.25 14.3886 2.25 14.5V15.5C2.25 17.0188 3.48119 18.25 4.99998 18.25H5.39C5.80421 18.25 6.14 17.9142 6.14 17.5C6.14 17.0858 5.80421 16.75 5.39 16.75H4.99998C4.30964 16.75 3.75 16.1904 3.75 15.5V14.5C3.75 13.8096 4.30964 13.25 5 13.25H15.5C15.6381 13.25 15.75 13.3619 15.75 13.5V16.5C15.75 16.6381 15.6381 16.75 15.5 16.75H12.7C12.2858 16.75 11.95 17.0858 11.95 17.5C11.95 17.9142 12.2858 18.25 12.7 18.25H15.5C16.4665 18.25 17.25 17.4665 17.25 16.5V2.5C17.25 1.5335 16.4665 0.75 15.5 0.75H5ZM15.75 11.7677V2.5C15.75 2.36193 15.6381 2.25 15.5 2.25H5C4.30964 2.25 3.75 2.80964 3.75 3.5V12.0499C4.12503 11.8581 4.54989 11.75 5 11.75H15.5C15.5849 11.75 15.6683 11.756 15.75 11.7677Z" fill="white"/>
<path d="M7 15.3C7 15.1343 7.13431 15 7.3 15H10.7C10.8657 15 11 15.1343 11 15.3V19.0146C11 19.2376 10.7653 19.3827 10.5658 19.2829L9.13416 18.5671C9.04971 18.5249 8.95029 18.5249 8.86584 18.5671L7.43416 19.2829C7.23469 19.3827 7 19.2376 7 19.0146V15.3Z" fill="white"/>
</svg>
