<svg width="20" height="20" viewBox="0 0 20 20" fill="none" xmlns="http://www.w3.org/2000/svg">
<path d="M7.24495 12.9248L3.989 9.66889L7.24495 6.41295C7.32229 6.33654 7.38369 6.24554 7.4256 6.14522C7.46751 6.0449 7.48909 5.93727 7.48909 5.82855C7.48909 5.71983 7.46751 5.61219 7.4256 5.51187C7.38369 5.41155 7.32229 5.32055 7.24495 5.24415C7.16854 5.1668 7.07754 5.1054 6.97722 5.06349C6.8769 5.02158 6.76927 5 6.66055 5C6.55183 5 6.44419 5.02158 6.34387 5.06349C6.24355 5.1054 6.15255 5.1668 6.07615 5.24415L2.24415 9.07614C2.16675 9.15338 2.10535 9.24512 2.06346 9.34611C2.02156 9.44711 2 9.55538 2 9.66472C2 9.77406 2.02156 9.88232 2.06346 9.98332C2.10535 10.0843 2.16675 10.1761 2.24415 10.2533L6.07615 14.0936C6.40174 14.4192 6.91935 14.4192 7.24495 14.0936C7.32229 14.0172 7.38369 13.9262 7.4256 13.8259C7.46751 13.7256 7.48909 13.618 7.48909 13.5092C7.48909 13.4005 7.46751 13.2929 7.4256 13.1926C7.38369 13.0922 7.32229 13.0012 7.24495 12.9248ZM12.755 12.9248L16.011 9.66889L12.755 6.41295C12.6777 6.33654 12.6163 6.24554 12.5744 6.14522C12.5324 6.0449 12.5109 5.93727 12.5109 5.82855C12.5109 5.71983 12.5324 5.61219 12.5744 5.51187C12.6163 5.41155 12.6777 5.32055 12.755 5.24415C12.8314 5.1668 12.9224 5.1054 13.0227 5.06349C13.123 5.02158 13.2307 5 13.3394 5C13.4481 5 13.5558 5.02158 13.6561 5.06349C13.7564 5.1054 13.8474 5.1668 13.9238 5.24415L17.7558 9.07614C18.0814 9.40174 18.0814 9.9277 17.7558 10.2533L13.9238 14.0936C13.8474 14.171 13.7564 14.2324 13.6561 14.2743C13.5558 14.3162 13.4481 14.3378 13.3394 14.3378C13.2307 14.3378 13.123 14.3162 13.0227 14.2743C12.9224 14.2324 12.8314 14.171 12.755 14.0936C12.6777 14.0172 12.6163 13.9262 12.5744 13.8259C12.5324 13.7256 12.5109 13.618 12.5109 13.5092C12.5109 13.4005 12.5324 13.2929 12.5744 13.1926C12.6163 13.0922 12.6777 13.0012 12.755 12.9248Z" fill="white"/>
</svg>
