<svg width="20" height="20" viewBox="0 0 20 20" fill="none" xmlns="http://www.w3.org/2000/svg">
<g clip-path="url(#clip0_33_15689)">
<path fill-rule="evenodd" clip-rule="evenodd" d="M10.0001 1.66675C10.1373 1.66673 10.2723 1.70056 10.3932 1.76525C10.5142 1.82994 10.6173 1.92348 10.6934 2.03758L15.6826 9.52175C15.7799 9.66031 15.8326 9.82527 15.8336 9.99458C15.8347 10.1639 15.784 10.3295 15.6884 10.4692L10.6934 17.9626C10.6173 18.0767 10.5142 18.1703 10.3933 18.235C10.2723 18.2997 10.1373 18.3336 10.0001 18.3336C9.86292 18.3336 9.72786 18.2997 9.60691 18.235C9.48596 18.1703 9.38286 18.0767 9.30676 17.9626L4.31176 10.4692C4.23355 10.3549 4.18519 10.2228 4.17107 10.0849C4.15695 9.9471 4.17753 9.80793 4.23093 9.68008C4.25397 9.62431 4.28304 9.57122 4.31759 9.52175L9.30676 2.03841C9.38279 1.92416 9.48586 1.83046 9.60681 1.76562C9.72776 1.70078 9.86286 1.66682 10.0001 1.66675ZM10.8334 5.25258L13.7018 9.55425L10.8334 10.5109V5.25258ZM9.16676 5.25258V10.5109L6.29843 9.55425L9.16676 5.25258ZM10.0001 15.9976L7.04093 11.5584L9.73676 12.4576C9.9077 12.5145 10.0925 12.5145 10.2634 12.4576L12.9593 11.5584L10.0001 15.9976Z" fill="#649891"/>
</g>
<defs>
<clipPath id="clip0_33_15689">
<rect width="20" height="20" fill="white"/>
</clipPath>
</defs>
</svg>
