<svg width="20" height="20" viewBox="0 0 20 20" fill="none" xmlns="http://www.w3.org/2000/svg">
<path d="M8.92609 3.19797C9.02516 2.98847 9.17847 2.81207 9.36867 2.68872C9.55888 2.56537 9.7784 2.5 10.0024 2.5C10.2264 2.5 10.4459 2.56537 10.6361 2.68872C10.8263 2.81207 10.9796 2.98847 11.0787 3.19797L12.7467 6.72087L16.4759 7.28559C16.6975 7.31916 16.9058 7.41677 17.077 7.56737C17.2483 7.71798 17.3757 7.91556 17.4448 8.13776C17.514 8.35996 17.5221 8.59791 17.4683 8.82468C17.4145 9.05145 17.3009 9.25799 17.1404 9.42092L14.4418 12.1632L15.0793 16.0365C15.1172 16.2666 15.0927 16.5031 15.0085 16.7194C14.9242 16.9357 14.7837 17.1231 14.6026 17.2605C14.4216 17.3978 14.2074 17.4796 13.9841 17.4967C13.7609 17.5137 13.5375 17.4653 13.3393 17.3568L10.0016 15.5265L6.66551 17.3568C6.46727 17.4653 6.24389 17.5137 6.02063 17.4967C5.79737 17.4796 5.58313 17.3978 5.40212 17.2605C5.2211 17.1231 5.08054 16.9357 4.9963 16.7194C4.91207 16.5031 4.88753 16.2666 4.92545 16.0365L5.56147 12.1632L2.86287 9.42092C2.70231 9.25788 2.58874 9.05122 2.535 8.82434C2.48127 8.59745 2.48953 8.35941 2.55885 8.13717C2.62817 7.91492 2.75578 7.71736 2.92722 7.56686C3.09866 7.41636 3.30709 7.31892 3.5289 7.28559L7.25803 6.72243L8.92609 3.19797ZM10.0031 4.45883L8.53308 7.56092C8.44723 7.74271 8.32033 7.90004 8.1633 8.01939C8.00626 8.13874 7.82378 8.21654 7.63155 8.2461L4.34643 8.74356L6.72401 11.1589C6.86329 11.3005 6.96747 11.4753 7.02758 11.6683C7.08768 11.8612 7.1019 12.0665 7.06903 12.2665L6.50801 15.6767L9.44511 14.0655C9.61722 13.9712 9.80872 13.9219 10.0031 13.9219C10.1975 13.9219 10.389 13.9712 10.5612 14.0655L13.4983 15.6767L12.9372 12.2665C12.9044 12.0665 12.9186 11.8612 12.9787 11.6683C13.0388 11.4753 13.143 11.3005 13.2823 11.1589L15.6583 8.742L12.3747 8.24453C12.1822 8.21521 11.9994 8.13753 11.8421 8.01816C11.6848 7.8988 11.5577 7.74134 11.4717 7.55935L10.0031 4.45883Z" fill="white"/>
</svg>
