<svg width="20" height="20" viewBox="0 0 20 20" fill="none" xmlns="http://www.w3.org/2000/svg">
<path fill-rule="evenodd" clip-rule="evenodd" d="M13.7785 12.9265C14.8339 11.5653 15.3313 9.85301 15.1695 8.13795C15.0077 6.4229 14.1989 4.83392 12.9076 3.69428C11.6162 2.55465 9.93943 1.94996 8.21826 2.00324C6.4971 2.05653 4.86086 2.76377 3.64245 3.9811C2.42296 5.19927 1.71369 6.83679 1.65916 8.55995C1.60462 10.2831 2.20894 11.9622 3.34895 13.2551C4.48896 14.548 6.07887 15.3574 7.79469 15.5183C9.5105 15.6793 11.2231 15.1796 12.5834 14.1212L12.6198 14.1593L16.2101 17.7519C16.2888 17.8305 16.3821 17.8929 16.4849 17.9355C16.5876 17.9781 16.6977 18 16.8089 18C16.9201 18 17.0303 17.9781 17.133 17.9355C17.2357 17.8929 17.3291 17.8305 17.4077 17.7519C17.4864 17.6732 17.5487 17.5798 17.5913 17.477C17.6339 17.3742 17.6558 17.2641 17.6558 17.1528C17.6558 17.0416 17.6339 16.9314 17.5913 16.8286C17.5487 16.7258 17.4864 16.6325 17.4077 16.5538L13.8166 12.9621C13.8042 12.9499 13.7915 12.938 13.7785 12.9265ZM12.0215 5.17918C12.4993 5.64951 12.8794 6.20983 13.1397 6.82783C13.4 7.44583 13.5354 8.10927 13.5381 8.77989C13.5409 9.45051 13.4109 10.115 13.1556 10.7351C12.9003 11.3552 12.5248 11.9186 12.0508 12.3928C11.5768 12.867 11.0136 13.2427 10.3938 13.498C9.77393 13.7534 9.10967 13.8835 8.43932 13.8807C7.76897 13.878 7.10579 13.7425 6.48804 13.4821C5.87029 13.2217 5.31019 12.8415 4.84005 12.3635C3.90052 11.4081 3.37639 10.1201 3.38185 8.77989C3.3873 7.43971 3.9219 6.15598 4.86918 5.20832C5.81646 4.26066 7.09968 3.72586 8.43932 3.7204C9.77897 3.71494 11.0665 4.23928 12.0215 5.17918Z" fill="#649891"/>
</svg>
