<svg width="20" height="20" viewBox="0 0 20 20" fill="none" xmlns="http://www.w3.org/2000/svg">
<path fill-rule="evenodd" clip-rule="evenodd" d="M6.25 5C6.25 4.0335 7.0335 3.25 8 3.25H16C16.9665 3.25 17.75 4.0335 17.75 5V13C17.75 13.9665 16.9665 14.75 16 14.75H8C7.0335 14.75 6.25 13.9665 6.25 13V5ZM8 4.75C7.86193 4.75 7.75 4.86193 7.75 5V13C7.75 13.1381 7.86193 13.25 8 13.25H16C16.1381 13.25 16.25 13.1381 16.25 13V5C16.25 4.86193 16.1381 4.75 16 4.75H8Z" fill="white"/>
<path fill-rule="evenodd" clip-rule="evenodd" d="M4 7.75C3.86193 7.75 3.75 7.86193 3.75 8V16C3.75 16.1381 3.86193 16.25 4 16.25H12C12.1381 16.25 12.25 16.1381 12.25 16V14C12.25 13.5858 12.5858 13.25 13 13.25C13.4142 13.25 13.75 13.5858 13.75 14V16C13.75 16.9665 12.9665 17.75 12 17.75H4C3.0335 17.75 2.25 16.9665 2.25 16V8C2.25 7.0335 3.0335 6.25 4 6.25H7C7.41421 6.25 7.75 6.58579 7.75 7C7.75 7.41421 7.41421 7.75 7 7.75H4Z" fill="white"/>
</svg>
