<svg width="20" height="20" viewBox="0 0 20 20" fill="none" xmlns="http://www.w3.org/2000/svg">
<path d="M11.45 9.85C11.45 10.7337 10.7337 11.45 9.85 11.45C8.96634 11.45 8.25 10.7337 8.25 9.85C8.25 8.96634 8.96634 8.25 9.85 8.25C10.7337 8.25 11.45 8.96634 11.45 9.85Z" fill="white"/>
<path fill-rule="evenodd" clip-rule="evenodd" d="M1.25 10C1.25 5.16751 5.16751 1.25 10 1.25C14.8325 1.25 18.75 5.16751 18.75 10C18.75 14.8325 14.8325 18.75 10 18.75C5.16751 18.75 1.25 14.8325 1.25 10ZM10 2.75C5.99594 2.75 2.75 5.99594 2.75 10C2.75 14.0041 5.99594 17.25 10 17.25C14.0041 17.25 17.25 14.0041 17.25 10C17.25 5.99594 14.0041 2.75 10 2.75Z" fill="white"/>
</svg>
