<svg width="20" height="20" viewBox="0 0 20 20" fill="none" xmlns="http://www.w3.org/2000/svg">
<path fill-rule="evenodd" clip-rule="evenodd" d="M3.25006 2C2.28403 2 1.5 2.78303 1.5 3.75006V9.25026C1.5 9.71441 1.68438 10.1595 2.01258 10.4877C2.34078 10.8159 2.78592 11.0003 3.25006 11.0003H3.50007V12.5434C3.50017 12.8315 3.58568 13.1131 3.74579 13.3526C3.9059 13.5921 4.13343 13.7788 4.3996 13.889C4.66578 13.9993 4.95867 14.0281 5.24124 13.972C5.52382 13.9158 5.78339 13.7771 5.98716 13.5734L8.56126 11.0003H12.7504C13.2145 11.0003 13.6597 10.8159 13.9879 10.4877C14.3161 10.1595 14.5004 9.71441 14.5004 9.25026V3.75006C14.5004 2.78303 13.7174 2 12.7504 2H3.25006ZM3.07328 3.57328C3.12017 3.52639 3.18376 3.50005 3.25006 3.50005H12.7504C12.8167 3.50005 12.8803 3.52639 12.9272 3.57328C12.974 3.62017 13.0004 3.68376 13.0004 3.75006V9.25026C13.0004 9.31657 12.974 9.38016 12.9272 9.42705C12.8803 9.47393 12.8167 9.50027 12.7504 9.50027H8.25025C8.15176 9.50019 8.05423 9.51959 7.96327 9.55735C7.87231 9.59511 7.78971 9.65048 7.72023 9.72028L5.00013 12.4394V10.2503C5.00013 10.0514 4.92111 9.86061 4.78045 9.71995C4.63979 9.57929 4.44902 9.50027 4.2501 9.50027H3.25006C3.11206 9.50027 3.00005 9.38827 3.00005 9.25026V3.75006C3.00005 3.68376 3.02639 3.62017 3.07328 3.57328Z" fill="white"/>
<path d="M16.2505 7.50013H16.7505C16.8168 7.50013 16.8804 7.52647 16.9273 7.57335C16.9742 7.62024 17.0005 7.68383 17.0005 7.75014V13.2503C17.0005 13.3166 16.9742 13.3802 16.9273 13.4271C16.8804 13.474 16.8168 13.5003 16.7505 13.5003H15.7505C15.5516 13.5003 15.3608 13.5794 15.2201 13.72C15.0795 13.8607 15.0005 14.0515 15.0005 14.2504V16.4395L13.0059 14.4458C12.9018 14.1567 12.625 13.95 12.3 13.95H9.30005C8.88584 13.95 8.55005 14.2857 8.55005 14.7C8.55005 15.1142 8.88584 15.45 9.30005 15.45H11.8899L14.0134 17.5735C14.2172 17.7772 14.4768 17.9159 14.7593 17.972C15.0419 18.0282 15.3348 17.9994 15.601 17.8891C15.8672 17.7789 16.0947 17.5922 16.2548 17.3527C16.4149 17.1132 16.5004 16.8316 16.5005 16.5435V15.0004H16.7505C17.2147 15.0004 17.6598 14.816 17.988 14.4878C18.3162 14.1596 18.5006 13.7145 18.5006 13.2503V7.75014C18.5006 6.7831 17.7176 6.00007 16.7505 6.00007H16.2505C16.0516 6.00007 15.8608 6.07909 15.7201 6.21975C15.5795 6.36041 15.5005 6.55118 15.5005 6.7501C15.5005 6.94902 15.5795 7.13979 15.7201 7.28045C15.8608 7.42111 16.0516 7.50013 16.2505 7.50013Z" fill="white"/>
</svg>
